<svg id="Layer_1" version="1.1" viewBox="0 0 128 128" xml:space="preserve" xmlns="http://www.w3.org/2000/svg"><circle cx="64" cy="64" fill="#4B5F83" id="circle" r="64"/><g id="icon"><path d="M77.5 94h-27c-2.2 0-4-1.8-4-4V38c0-2.2 1.8-4 4-4h27c2.2 0 4 1.8 4 4v52c0 2.2-1.8 4-4 4z" fill="#FFF" id="base"/><path fill="#22A7F0" id="screen" d="M49.5 43h29v42h-29z"/><circle cx="63.9" cy="89.8" fill="#B3B3B3" id="nav" r="2"/><path d="M68 39.5h-8c-.5 0-1-.4-1-1 0-.5.5-1 1-1h8c.6 0 1 .5 1 1 0 .6-.4 1-1 1z" fill="#B3B3B3" id="speaker"/></g></svg>