<svg version="1.1" id="Capa_1" xmlns="http://www.w3.org/2000/svg" x="0" y="0" viewBox="0 0 89.101 89.101" xml:space="preserve"><path d="M1.782 74.363a2.005 2.005 0 002.227-1.297c.313-.871 7.783-21.322 39.755-21.322 1.686 0 3.949.059 4.949.175v8.066c0 2.469 1.753 4.917 4.079 6.239.806.458 1.792.689 2.684.689 2.219 0 4.094-1.414 5.551-2.551.435-.34.877-.66 1.224-.883 1.374-.883 2.738-1.836 4.043-2.759a202.13 202.13 0 012.141-1.493c3.639-2.497 7.289-5.12 10.814-7.656l1.271-.913c.477-.342.962-.678 1.446-1.014.39-.271.778-.541 1.103-.771 2.688-1.756 6.032-3.941 6.032-8.069 0-3.968-2.773-5.857-5.956-8.026l-2.104-1.49a483.461 483.461 0 00-5.562-3.909c-2.031-1.4-4.07-2.89-6.043-4.331-2.283-1.669-4.646-3.395-7.037-5.013a25.108 25.108 0 01-1.04-.762c-1.627-1.23-3.952-2.796-6.526-2.535-3.458.341-6.118 3.902-6.118 6.885v8.994c0-.009-.561-.016-1.074-.016C24.548 30.602 0 41.582 0 72.395c0 .972.825 1.801 1.782 1.968zm46.107-39.761c1.405 0 2.233-.135 2.242-.135.045.003.092-.186.137-.186h.945c1.104 0 1.5-.515 1.5-1.619V21.624c0-1.182 1.314-2.786 2.51-2.904 1.042-.103 2.396.836 3.596 1.745.416.314.883.618 1.274.884 2.332 1.578 4.695 3.282 6.951 4.93a276.566 276.566 0 006.148 4.395 480.308 480.308 0 015.525 3.878l2.143 1.516c3.385 2.306 4.238 3.104 4.238 4.739 0 1.68-1.301 2.813-4.28 4.763-.375.265-.754.527-1.133.791-.502.348-1.002.695-1.497 1.051l-1.272.915c-3.508 2.523-7.136 5.133-10.739 7.605-.728.5-1.452 1.013-2.178 1.525-1.269.896-2.581 1.824-3.879 2.658-.501.322-1.005.715-1.492 1.096-.974.76-2.185 1.704-3.027 1.704-.196 0-.632-.053-.833-.168-1.062-.604-2.055-1.739-2.055-2.761v-9.92c0-1.037-.543-1.903-1.577-1.992a82.532 82.532 0 00-7.247-.329c-22.062 0-33.52 9.183-39.099 16.192 4.94-27.066 33.728-29.335 43.099-29.335z"/></svg>